<svg width="746" height="185" viewBox="0 0 746 185" fill="none" xmlns="http://www.w3.org/2000/svg">
<g filter="url(#filter0_d_511_60235)">
<mask id="mask0_511_60235" style="mask-type:alpha" maskUnits="userSpaceOnUse" x="7" y="14" width="733" height="159">
<path d="M90.9625 15.74L75.7525 80H58.8325L51.7225 46.25C51.6025 45.59 51.4225 44.6 51.1825 43.28C50.9425 41.96 50.6725 40.52 50.3725 38.96C50.1325 37.4 49.8925 35.93 49.6525 34.55C49.4725 33.11 49.3225 32 49.2025 31.22C49.1425 32 48.9925 33.11 48.7525 34.55C48.5125 35.93 48.2425 37.4 47.9425 38.96C47.7025 40.46 47.4625 41.9 47.2225 43.28C46.9825 44.6 46.7725 45.62 46.5925 46.34L39.4825 80H22.5625L7.35253 15.74H21.5725L28.6825 50.84C28.8625 51.86 29.1025 53.12 29.4025 54.62C29.7025 56.06 30.0025 57.59 30.3025 59.21C30.6025 60.77 30.8725 62.3 31.1125 63.8C31.3525 65.3 31.5325 66.59 31.6525 67.67C31.8325 66.53 32.0425 65.24 32.2825 63.8C32.5825 62.3 32.8525 60.77 33.0925 59.21C33.3925 57.65 33.6625 56.21 33.9025 54.89C34.2025 53.51 34.4425 52.4 34.6225 51.56L42.4525 15.74H55.9525L63.6025 51.74C63.7825 52.52 63.9925 53.6 64.2325 54.98C64.5325 56.3 64.8325 57.74 65.1325 59.3C65.4325 60.86 65.7025 62.39 65.9425 63.89C66.1825 65.33 66.3925 66.59 66.5725 67.67C66.7525 66.17 67.0225 64.4 67.3825 62.36C67.7425 60.26 68.1325 58.16 68.5525 56.06C68.9725 53.96 69.3325 52.22 69.6325 50.84L76.7425 15.74H90.9625ZM149.964 47.78C149.964 52.76 149.394 57.29 148.254 61.37C147.114 65.39 145.374 68.87 143.034 71.81C140.694 74.75 137.664 77 133.944 78.56C130.284 80.12 125.934 80.9 120.894 80.9C115.914 80.9 111.594 80.12 107.934 78.56C104.274 76.94 101.244 74.69 98.8439 71.81C96.5039 68.87 94.7339 65.36 93.5339 61.28C92.3939 57.2 91.8239 52.67 91.8239 47.69C91.8239 41.03 92.8439 35.24 94.8839 30.32C96.9839 25.4 100.194 21.59 104.514 18.89C108.834 16.13 114.324 14.75 120.984 14.75C127.704 14.75 133.194 16.13 137.454 18.89C141.714 21.59 144.864 25.43 146.904 30.41C148.944 35.33 149.964 41.12 149.964 47.78ZM107.124 47.78C107.124 52.28 107.574 56.15 108.474 59.39C109.434 62.63 110.934 65.12 112.974 66.86C115.014 68.6 117.654 69.47 120.894 69.47C124.194 69.47 126.834 68.6 128.814 66.86C130.854 65.12 132.324 62.63 133.224 59.39C134.184 56.15 134.664 52.28 134.664 47.78C134.664 41 133.584 35.69 131.424 31.85C129.324 28.01 125.844 26.09 120.984 26.09C117.684 26.09 115.014 26.96 112.974 28.7C110.934 30.44 109.434 32.93 108.474 36.17C107.574 39.41 107.124 43.28 107.124 47.78ZM176.876 15.74C182.336 15.74 186.866 16.46 190.466 17.9C194.066 19.28 196.736 21.41 198.476 24.29C200.276 27.11 201.176 30.68 201.176 35C201.176 37.94 200.696 40.52 199.736 42.74C198.836 44.9 197.576 46.76 195.956 48.32C194.336 49.82 192.506 51.05 190.466 52.01L208.106 80H191.816L178.226 55.34H172.736V80H158.156V15.74H176.876ZM176.246 26.9H172.736V44.27H176.336C178.556 44.27 180.416 43.94 181.916 43.28C183.416 42.62 184.556 41.63 185.336 40.31C186.116 38.93 186.506 37.28 186.506 35.36C186.506 33.32 186.146 31.7 185.426 30.5C184.706 29.24 183.596 28.34 182.096 27.8C180.596 27.2 178.646 26.9 176.246 26.9ZM211.07 80V15.74H225.65V68.75H249.5V80H211.07ZM306.655 47.24C306.655 54.44 305.335 60.47 302.695 65.33C300.115 70.19 296.395 73.85 291.535 76.31C286.735 78.77 280.975 80 274.255 80H255.985V15.74H275.875C282.295 15.74 287.785 16.94 292.345 19.34C296.965 21.74 300.505 25.28 302.965 29.96C305.425 34.58 306.655 40.34 306.655 47.24ZM291.535 47.6C291.535 42.86 290.965 38.96 289.825 35.9C288.685 32.84 286.975 30.59 284.695 29.15C282.475 27.65 279.685 26.9 276.325 26.9H270.565V68.75H275.065C280.705 68.75 284.845 66.98 287.485 63.44C290.185 59.9 291.535 54.62 291.535 47.6Z" fill="black"/>
<path d="M33.03 171.948L19.62 121.548H19.26C19.32 122.748 19.41 124.548 19.53 126.948C19.65 129.348 19.77 131.928 19.89 134.688C20.01 137.388 20.07 139.848 20.07 142.068V171.948H7.11V107.688H26.73L40.14 156.828H40.41L54.18 107.688H73.8V171.948H60.3V141.528C60.3 139.488 60.33 137.148 60.39 134.508C60.45 131.868 60.54 129.378 60.66 127.038C60.78 124.638 60.87 122.838 60.93 121.638H60.57L46.71 171.948H33.03ZM111.367 171.948H81.9373V164.208L89.4073 160.608V119.028L81.9373 115.428V107.688H111.367V115.428L103.987 119.028V160.608L111.367 164.208V171.948ZM156.878 154.128C156.878 157.908 156.038 161.208 154.358 164.028C152.678 166.848 150.128 169.038 146.708 170.598C143.348 172.098 139.088 172.848 133.928 172.848C131.528 172.848 129.308 172.698 127.268 172.398C125.228 172.098 123.308 171.678 121.508 171.138C119.708 170.538 117.908 169.818 116.108 168.978V156.288C119.168 157.608 122.288 158.838 125.468 159.978C128.708 161.058 131.768 161.598 134.648 161.598C136.508 161.598 138.008 161.298 139.148 160.698C140.288 160.098 141.128 159.288 141.668 158.268C142.208 157.248 142.478 156.078 142.478 154.758C142.478 153.138 142.028 151.758 141.128 150.618C140.288 149.478 139.028 148.428 137.348 147.468C135.668 146.448 133.598 145.428 131.138 144.408C129.338 143.628 127.568 142.728 125.828 141.708C124.088 140.688 122.528 139.458 121.148 138.018C119.768 136.518 118.658 134.718 117.818 132.618C117.038 130.518 116.648 127.998 116.648 125.058C116.648 121.218 117.548 117.948 119.348 115.248C121.148 112.488 123.668 110.388 126.908 108.948C130.148 107.508 133.928 106.788 138.248 106.788C141.788 106.788 145.058 107.178 148.058 107.958C151.118 108.738 154.028 109.848 156.788 111.288L152.198 121.908C149.558 120.708 147.038 119.778 144.638 119.118C142.298 118.458 140.018 118.128 137.798 118.128C136.298 118.128 135.038 118.398 134.018 118.938C132.998 119.478 132.218 120.228 131.678 121.188C131.198 122.148 130.958 123.288 130.958 124.608C130.958 126.108 131.348 127.398 132.128 128.478C132.968 129.498 134.258 130.518 135.998 131.538C137.738 132.498 139.958 133.668 142.658 135.048C145.658 136.548 148.208 138.138 150.308 139.818C152.468 141.438 154.088 143.388 155.168 145.668C156.308 147.948 156.878 150.768 156.878 154.128ZM202.714 154.128C202.714 157.908 201.874 161.208 200.194 164.028C198.514 166.848 195.964 169.038 192.544 170.598C189.184 172.098 184.924 172.848 179.764 172.848C177.364 172.848 175.144 172.698 173.104 172.398C171.064 172.098 169.144 171.678 167.344 171.138C165.544 170.538 163.744 169.818 161.944 168.978V156.288C165.004 157.608 168.124 158.838 171.304 159.978C174.544 161.058 177.604 161.598 180.484 161.598C182.344 161.598 183.844 161.298 184.984 160.698C186.124 160.098 186.964 159.288 187.504 158.268C188.044 157.248 188.314 156.078 188.314 154.758C188.314 153.138 187.864 151.758 186.964 150.618C186.124 149.478 184.864 148.428 183.184 147.468C181.504 146.448 179.434 145.428 176.974 144.408C175.174 143.628 173.404 142.728 171.664 141.708C169.924 140.688 168.364 139.458 166.984 138.018C165.604 136.518 164.494 134.718 163.654 132.618C162.874 130.518 162.484 127.998 162.484 125.058C162.484 121.218 163.384 117.948 165.184 115.248C166.984 112.488 169.504 110.388 172.744 108.948C175.984 107.508 179.764 106.788 184.084 106.788C187.624 106.788 190.894 107.178 193.894 107.958C196.954 108.738 199.864 109.848 202.624 111.288L198.034 121.908C195.394 120.708 192.874 119.778 190.474 119.118C188.134 118.458 185.854 118.128 183.634 118.128C182.134 118.128 180.874 118.398 179.854 118.938C178.834 119.478 178.054 120.228 177.514 121.188C177.034 122.148 176.794 123.288 176.794 124.608C176.794 126.108 177.184 127.398 177.964 128.478C178.804 129.498 180.094 130.518 181.834 131.538C183.574 132.498 185.794 133.668 188.494 135.048C191.494 136.548 194.044 138.138 196.144 139.818C198.304 141.438 199.924 143.388 201.004 145.668C202.144 147.948 202.714 150.768 202.714 154.128ZM281.504 149.268C281.504 153.708 280.544 157.728 278.624 161.328C276.764 164.868 273.944 167.688 270.164 169.788C266.384 171.828 261.644 172.848 255.944 172.848C247.784 172.848 241.544 170.688 237.224 166.368C232.964 161.988 230.834 156.228 230.834 149.088V107.688H245.414V147.018C245.414 152.298 246.314 156.018 248.114 158.178C249.974 160.338 252.674 161.418 256.214 161.418C258.734 161.418 260.774 160.908 262.334 159.888C263.894 158.868 265.034 157.278 265.754 155.118C266.534 152.958 266.924 150.228 266.924 146.928V107.688H281.504V149.268ZM350.798 171.948H331.988L307.778 123.348H307.418C307.478 124.848 307.538 126.378 307.598 127.938C307.658 129.438 307.718 130.968 307.778 132.528C307.898 134.028 307.988 135.558 308.048 137.118C308.108 138.618 308.168 140.148 308.228 141.708V171.948H295.268V107.688H313.988L338.108 155.838H338.378C338.378 154.338 338.348 152.868 338.288 151.428C338.228 149.928 338.138 148.458 338.018 147.018C337.958 145.518 337.898 144.048 337.838 142.608C337.778 141.108 337.748 139.608 337.748 138.108V107.688H350.798V171.948ZM390.163 171.948H360.733V164.208L368.203 160.608V119.028L360.733 115.428V107.688H390.163V115.428L382.783 119.028V160.608L390.163 164.208V171.948ZM449.804 107.688L429.554 171.948H412.994L392.924 107.688H408.494L418.394 145.938C418.574 146.598 418.874 147.828 419.294 149.628C419.714 151.368 420.134 153.228 420.554 155.208C420.974 157.128 421.244 158.748 421.364 160.068C421.544 158.748 421.814 157.128 422.174 155.208C422.594 153.288 422.984 151.458 423.344 149.718C423.764 147.918 424.064 146.658 424.244 145.938L434.144 107.688H449.804ZM492.179 171.948H456.899V107.688H492.179V118.848H471.479V132.978H490.739V144.138H471.479V160.698H492.179V171.948ZM522.553 107.688C528.013 107.688 532.543 108.408 536.143 109.848C539.743 111.228 542.413 113.358 544.153 116.238C545.953 119.058 546.853 122.628 546.853 126.948C546.853 129.888 546.373 132.468 545.413 134.688C544.513 136.848 543.253 138.708 541.633 140.268C540.013 141.768 538.183 142.998 536.143 143.958L553.783 171.948H537.493L523.903 147.288H518.413V171.948H503.833V107.688H522.553ZM521.923 118.848H518.413V136.218H522.013C524.233 136.218 526.093 135.888 527.593 135.228C529.093 134.568 530.233 133.578 531.013 132.258C531.793 130.878 532.183 129.228 532.183 127.308C532.183 125.268 531.823 123.648 531.103 122.448C530.383 121.188 529.273 120.288 527.773 119.748C526.273 119.148 524.323 118.848 521.923 118.848ZM597.786 154.128C597.786 157.908 596.946 161.208 595.266 164.028C593.586 166.848 591.036 169.038 587.616 170.598C584.256 172.098 579.996 172.848 574.836 172.848C572.436 172.848 570.216 172.698 568.176 172.398C566.136 172.098 564.216 171.678 562.416 171.138C560.616 170.538 558.816 169.818 557.016 168.978V156.288C560.076 157.608 563.196 158.838 566.376 159.978C569.616 161.058 572.676 161.598 575.556 161.598C577.416 161.598 578.916 161.298 580.056 160.698C581.196 160.098 582.036 159.288 582.576 158.268C583.116 157.248 583.386 156.078 583.386 154.758C583.386 153.138 582.936 151.758 582.036 150.618C581.196 149.478 579.936 148.428 578.256 147.468C576.576 146.448 574.506 145.428 572.046 144.408C570.246 143.628 568.476 142.728 566.736 141.708C564.996 140.688 563.436 139.458 562.056 138.018C560.676 136.518 559.566 134.718 558.726 132.618C557.946 130.518 557.556 127.998 557.556 125.058C557.556 121.218 558.456 117.948 560.256 115.248C562.056 112.488 564.576 110.388 567.816 108.948C571.056 107.508 574.836 106.788 579.156 106.788C582.696 106.788 585.966 107.178 588.966 107.958C592.026 108.738 594.936 109.848 597.696 111.288L593.106 121.908C590.466 120.708 587.946 119.778 585.546 119.118C583.206 118.458 580.926 118.128 578.706 118.128C577.206 118.128 575.946 118.398 574.926 118.938C573.906 119.478 573.126 120.228 572.586 121.188C572.106 122.148 571.866 123.288 571.866 124.608C571.866 126.108 572.256 127.398 573.036 128.478C573.876 129.498 575.166 130.518 576.906 131.538C578.646 132.498 580.866 133.668 583.566 135.048C586.566 136.548 589.116 138.138 591.216 139.818C593.376 141.438 594.996 143.388 596.076 145.668C597.216 147.948 597.786 150.768 597.786 154.128ZM633.093 171.948H603.663V164.208L611.133 160.608V119.028L603.663 115.428V107.688H633.093V115.428L625.713 119.028V160.608L633.093 164.208V171.948ZM667.894 171.948H653.314V119.028H637.744V107.688H683.464V119.028H667.894V171.948ZM712.606 134.148L724.126 107.688H739.786L719.806 146.928V171.948H705.316V147.378L685.336 107.688H701.176L712.606 134.148Z" fill="black"/>
</mask>
<g mask="url(#mask0_511_60235)">
<rect x="-124.754" y="-150.315" width="911.424" height="354.976" fill="#F6F2FF"/>
<ellipse cx="450.097" cy="7.63554" rx="74.4627" ry="74.5052" fill="#063ED3"/>
<ellipse cx="549.381" cy="55.9812" rx="74.4627" ry="74.5052" fill="#00A7F5" fill-opacity="0.6"/>
<ellipse cx="218.435" cy="7.63554" rx="74.4627" ry="74.5052" fill="#00A7F5" fill-opacity="0.2"/>
<ellipse cx="43.3653" cy="54.3266" rx="91.3409" ry="91.393" fill="#7C4DFF"/>
<ellipse cx="134.958" cy="94.8205" rx="102.593" ry="102.652" fill="#E500E3"/>
<ellipse cx="623.512" cy="175.852" rx="142.637" ry="142.719" fill="#E500E3" fill-opacity="0.3"/>
<ellipse cx="115.512" cy="-0.642578" rx="54.9369" ry="54.9683" fill="#E500E3" fill-opacity="0.5"/>
<ellipse cx="26.1561" cy="172.872" rx="66.851" ry="66.8891" fill="#7F00DB"/>
<ellipse cx="316.065" cy="60.287" rx="97.2979" ry="97.3534" fill="#7F00DB" fill-opacity="0.6"/>
<ellipse cx="299.518" cy="149.693" rx="122.45" ry="122.52" fill="#7C4DFF" fill-opacity="0.3"/>
<ellipse cx="438.846" cy="130.818" rx="74.4627" ry="74.5052" fill="#7C4DFF" fill-opacity="0.3"/>
</g>
</g>
<defs>
<filter id="filter0_d_511_60235" x="0.954915" y="13.9806" width="744.986" height="170.408" filterUnits="userSpaceOnUse" color-interpolation-filters="sRGB">
<feFlood flood-opacity="0" result="BackgroundImageFix"/>
<feColorMatrix in="SourceAlpha" type="matrix" values="0 0 0 0 0 0 0 0 0 0 0 0 0 0 0 0 0 0 127 0" result="hardAlpha"/>
<feOffset dy="5.38569"/>
<feGaussianBlur stdDeviation="3.07754"/>
<feComposite in2="hardAlpha" operator="out"/>
<feColorMatrix type="matrix" values="0 0 0 0 0 0 0 0 0 0 0 0 0 0 0 0 0 0 0.37 0"/>
<feBlend mode="normal" in2="BackgroundImageFix" result="effect1_dropShadow_511_60235"/>
<feBlend mode="normal" in="SourceGraphic" in2="effect1_dropShadow_511_60235" result="shape"/>
</filter>
</defs>
</svg>
