<svg xmlns="http://www.w3.org/2000/svg" xmlns:xlink="http://www.w3.org/1999/xlink" version="1.1" id="레이어_1" x="0px" y="0px" viewBox="0 0 1000 1000" style="enable-background:new 0 0 1000 1000;" xml:space="preserve">
  <g>
    <path d="M934.9,997.2c-15.4,0-30.7-5.9-42.4-17.6L22.7,109.8C11,98.1,5.1,82.8,5.1,67.4S11,36.7,22.7,25   c23.4-23.4,61.4-23.4,84.9,0l869.8,869.8c11.7,11.7,17.6,27.1,17.6,42.4s-5.9,30.7-17.6,42.4S950.3,997.2,934.9,997.2z"></path>
    <path d="M66.4,995.7c-15.4,0-30.7-5.9-42.4-17.6S6.4,951.1,6.4,935.7c0-15.4,5.9-30.7,17.6-42.4L892.5,24.7   c23.4-23.4,61.4-23.4,84.9,0c11.7,11.7,17.6,27.1,17.6,42.4s-5.9,30.7-17.6,42.4L108.8,978.1C97.1,989.8,81.7,995.7,66.4,995.7z"></path>
  </g>
</svg>