<svg width="320" height="190" viewBox="0 0 320 190" fill="none" xmlns="http://www.w3.org/2000/svg">
<g clip-path="url(#clip0_1977_75699)">
<path d="M275.283 149.468L276.604 148.897L275.547 148.114L285.819 143.27L289.436 140.297L298.85 136.222L307.035 125.485L315.155 114.271L318.521 100.388L318.468 100.216L318.587 99.5389L318.284 99.6583L316.039 92.9295L318.204 89.7841L318.917 100.375L319.142 115.385L313.293 129.573L302.071 140.124L288.842 148.114L275.376 149.76L275.27 149.468M259.533 145.486L246.291 139.301L236.217 128.458L226.104 116.261L226.21 112.731C226.712 112.705 228.441 112.519 230.804 111.842L230.976 114.297L238.898 125.937L247.928 136.342L258.622 142.354L258.728 142.566L267.019 147.915L259.533 145.499M226.593 100.388L228.956 89.7708L231.979 95.0928L229.999 100.388L230.052 101.065L230.025 101.025L227.834 96.9243L227.504 101.782L230.171 109.294C228.969 109.771 227.755 110.156 226.474 110.409C226.408 110.409 226.355 110.435 226.302 110.448L226.606 100.402M314.098 87.0766L308.197 76.5653L310.943 72.1988L309.372 71.0176L305.517 70.4071L304.566 71.7078L299.642 65.6956L302.507 63.2801L299.866 59.5375L297.807 61.2628L294.995 62.8953L288.552 59.8162L286.241 56.2195L278.729 54.2155L278.161 53.0475L288.499 52.2512L301.543 60.3869L313.293 70.5664L317.346 83.5994L316.501 86.1077L314.759 89.0674L314.098 87.0766M235.188 84.7673L231.61 84.3691C231.372 83.8117 231.121 83.2277 230.857 82.6305L234.303 71.7874H237.485C238.581 71.1105 239.716 70.6062 240.746 70.2213L239.769 71.23L238.884 71.2034L236.112 72.5572L237.419 73.8313L235.306 85.1389L235.201 84.7938M239.756 66.3327C239.729 66.5981 239.716 66.7308 239.716 66.7308L239.676 67.6068C239.624 68.1642 239.188 68.2836 239.188 68.2836C238.119 68.788 237.181 69.2525 236.376 69.6639L239.742 66.3327M241.01 67.1157C241.182 66.253 241.353 65.4169 241.525 64.5675L245.182 60.9841L247.809 59.6038L248.007 62.1786L248.654 62.7625L247.36 63.5456L244.284 66.6777C242.819 67.0361 241.894 67.5537 241.894 67.5537C241.591 67.6997 241.38 67.7395 241.208 67.7395C240.693 67.7395 240.997 67.1157 240.997 67.1157M250.608 61.0505L248.192 59.4048L258.582 53.95L270.663 53.5386L265.646 56.1266L259.612 56.1532L250.991 61.3424L250.608 61.0505" fill="#E4C1DB"/>
<path d="M267.93 75.0391L269.752 68.8412L274.227 68.6421L279.191 68.3103L282.875 75.2648L274.227 77.083L267.93 75.0259M284.023 67.9652L286.532 67.806L288.789 66.5053L293.648 70.6992L290.004 73.7518L285.713 74.6543L284.023 67.9652M258.926 72.1326L257.645 70.9381L260.272 68.589L261.038 69.1862L264.774 69.027L264.088 73.7783L258.939 72.1193M293.344 67.3415L291.707 64.78L297.793 61.2364L299.853 59.5111L302.493 63.2537L295.707 68.9739L293.344 67.3547M248.034 62.1256L247.796 59.0598L250.634 60.9975L255.427 64.78L253.631 67.2618L248.034 62.1256" fill="#E4C1DB"/>
<path d="M288.565 113.846L288.789 112.784L289.41 106.308L297.516 102.419L304.21 99.8708L304.236 100.11L302.52 106.679L301.411 107.595L288.684 113.886L288.552 113.859M274.412 111.723L267.124 111.643L267.481 108.152L274.412 110.794L286.545 107.661L288.182 106.892L288.433 107.741L285.674 113.421L274.399 111.723M260.734 111.563L248.509 106.294L248.099 104.158L249.05 104.848L261.236 106.029L261.209 111.563H260.734M234.752 100.017L227.464 87.1696L229.88 84.8072C232.151 88.4703 233.669 90.899 233.669 90.899C233.669 90.899 234.409 91.3237 234.197 90.262C234.197 90.262 233.141 87.9129 231.583 84.356L235.161 84.7542L238.488 97.0837L242.713 100.163C241.828 100.972 240.957 101.716 240.125 102.472L234.739 100.017M308.897 100.096L308.738 98.1056L309.649 97.7473L316.475 86.0946L317.346 83.5066L319.973 87.1829L312.026 98.7294L308.844 101.384L308.91 100.083" fill="#E4C1DB"/>
<path d="M265.91 91.5891L266.068 88.0854L274.57 90.1691L284.829 86.1211L284.314 93.7392L274.597 95.0929L265.91 91.5891M292.262 86.6387L290.611 83.6658L298.308 80.2417L299.166 79.0605L302.243 85.1921L291.324 92.1333L292.248 86.6387M251.493 85.2319C251.374 84.3294 251.149 83.4402 250.727 82.7235L259.506 86.2406L258.833 87.8465L259.018 88.7357L251.479 85.2319M248.337 83.7587L248.997 82.6837C249.314 83.0421 249.737 83.626 249.829 84.4489L248.337 83.7587M236.099 72.5175L238.871 71.1637L240.006 71.1903L246.911 79.6975L245.908 82.0599L236.112 72.5042M304.329 74.787L302.942 73.8579L305.504 70.3674L309.359 70.9779L310.93 72.1591L305.86 80.2152L304.315 74.787" fill="#E4C1DB"/>
<path d="M270.425 132.666L268.339 126.813L274.135 128.498L281.33 125.804L280.419 131.378L274.148 132.971L270.425 132.666M259.057 131.71L251.809 126.866L251.044 121.57L260.893 124.636L261.104 124.676V125.844L262.794 132.015L259.057 131.697M286.149 125.406L286.466 123.866L286.73 123.76L296.209 122.194L293.938 126.468L292.948 127.835L288.697 129.268L284.05 130.449L286.149 125.393M246.37 123.203L232.653 116.341L231.029 111.749C232.23 111.391 233.603 110.886 235.055 110.21L236.613 113.09L244.522 118.266L249.459 125.286L246.357 123.216M302.863 124.211L307.18 114.828L309.702 112.492L315.801 100.601L318.561 99.5125L318.257 101.317L313.465 114.762L302.691 124.477L302.85 124.225M227.464 101.755L227.794 96.8979L229.986 100.999L233.55 107.489C232.415 108.166 231.293 108.776 230.131 109.267L227.464 101.755" fill="#E4C1DB"/>
<path d="M258.741 142.54L251.638 128.365L242.7 115.704L242.898 104.755C244.456 103.202 245.974 101.357 247.347 99.1408L247.373 100.203L249.882 113.421L251.968 127.914L261.553 138.89L266.345 141.982L270.161 149.813L273.263 150.304L271.758 150.941L258.754 142.54M274.953 148.366L275.561 148.101L276.617 148.884L275.296 149.454L274.953 148.366M244.456 85.4442L249.882 72.8492C250.674 74.3755 252.971 74.4949 252.971 74.4949C253.169 74.5215 253.248 74.3224 253.248 74.3224C252.483 72.252 250.727 72.2653 250.119 72.3316L250.37 71.7344L251.387 70.3408C252.918 71.3495 253.895 72.7696 254.45 73.7782V73.8048L249.737 81.5157C249.71 81.5157 249.671 81.4627 249.631 81.4494C246.7 79.5913 248.654 82.3386 248.654 82.3386C248.654 82.3386 248.826 82.4315 249.037 82.6704L247.043 85.9618L247.241 94.3098C246.396 96.0882 245.076 98.0525 243.003 99.9105L244.456 85.4442ZM252.866 68.3102L259.414 59.2854L271.864 52.8751L272.035 52.9945L265.619 63.2802L265.513 64.0765L264.576 64.7667L256.166 72.252C255.255 70.3541 253.552 68.8677 252.866 68.3102M272.445 52.5565L272.986 52.2778L273.237 52.7424L272.445 52.5565Z" fill="#E4C1DB"/>
<path d="M270.148 149.813L264.523 138.226L261.091 125.857L261.21 113.036L261.289 100.388L258.859 87.8465L263.81 75.7292L265.593 63.2935L272.009 53.0078L273.078 53.8307L271.877 55.0251L274.663 60.0684L270.253 67.1689L266.464 80.0293L265.817 93.6728L267.599 107.077L266.187 120.734L270.742 133.568L273.171 142.261L272.115 143.456L271.587 143.655V144.026L270.9 144.836L271.692 147.716L271.719 148.18L271.824 148.233L272.049 149.043L273.593 148.658L274.082 148.791L274.94 148.379L275.666 150.702L270.148 149.813Z" fill="#E4C1DB"/>
<path d="M273.593 148.658L274.729 148.406L279.138 140.841L285.383 138.532L293.938 126.507L300.632 113.912L304.236 100.11L302.626 85.9619L296.011 72.783L284.816 63.068L281.832 60.7188L278.729 54.2156L286.241 56.2197L293.344 67.3548L304.342 74.8136L307.959 87.5015L308.95 100.083L308.263 112.572L302.903 124.238L295.879 135.041L285.832 143.27L274.108 148.791L273.62 148.658M271.745 148.18L271.719 147.716L271.851 148.22L271.732 148.167M271.6 143.641L272.115 143.442L271.6 144.013V143.628M271.045 52.2249L273.673 52.8354L273.99 52.915L273.567 53.3131L273.092 53.8175L271.045 52.2381" fill="#E4C1DB"/>
<path d="M270.9 144.836L279.891 134.656L282.135 120.774L288.446 107.728L284.314 93.8453L285.251 79.6843L278.597 67.1954L271.877 55.0251L273.541 53.3263L276.854 50.3269L282.611 62.3512L285.74 74.8268L292.248 86.6387L290.03 99.9106L288.789 112.784L286.149 125.419L281.224 137.311L274.729 148.393L272.049 149.043L270.9 144.836Z" fill="#E4C1DB"/>
<path d="M249.908 72.3845C249.71 72.4243 249.776 72.6234 249.776 72.6234C250.436 74.3886 252.958 74.508 252.958 74.508H252.984C253.183 74.508 253.235 74.3355 253.235 74.3355C252.298 71.8138 249.908 72.3845 249.908 72.3845Z" fill="#AE0082"/>
<path d="M256.378 76.3528C255.638 75.7423 255.968 75.9679 255.968 75.9679C256.853 76.7244 256.76 75.0389 256.76 75.0389C257.011 71.2962 252.536 68.0977 252.536 68.0977C247.492 64.355 241.908 67.5004 241.908 67.5004C240.495 68.0977 241.023 67.0625 241.023 67.0625C249.38 25.4021 255.506 12.7009 255.506 12.7009C226.699 22.7875 223.187 49.6896 223.187 49.6896C227.953 39.9215 231.927 37.307 231.927 37.307C237.736 26.5037 248.311 22.5619 248.311 22.5619C241.763 43.85 239.703 66.6776 239.703 66.6776L239.663 67.5535C239.611 68.111 239.175 68.2304 239.175 68.2304C235.637 69.9159 233.445 71.1369 233.445 71.1369C232.864 71.6944 233.247 71.7474 233.247 71.7474L237.472 71.774C242.238 68.8276 247.017 69.1196 247.017 69.1196C252.945 68.9736 255.005 75.0389 255.005 75.0389C255.282 75.5963 255.123 77.7331 255.123 77.7331C256.879 77.7331 258.952 79.2328 258.952 79.2328C259.177 78.3568 256.364 76.3528 256.364 76.3528H256.378Z" fill="#AE0082"/>
<path d="M233.986 90.9652C234.158 90.9652 234.343 90.8458 234.237 90.2485C234.237 90.2485 225.893 71.8006 221.893 60.0285C221.893 60.0285 221.576 58.9668 216.929 51.8663C216.929 51.8663 215.45 49.7693 211.146 39.5766C211.146 39.5766 200.584 15.1961 190.564 0.331661C190.564 0.331661 189.732 -0.610641 189.309 0.676729C189.309 0.676729 186.246 14.0149 182.774 24.0883C182.774 24.0883 174.747 47.6326 185.718 68.204C185.718 68.204 190.682 76.5254 201.68 86.0281C202.01 86.3201 202.895 86.1343 202.208 85.5237C202.208 85.5237 181.731 72.0395 188.095 38.1299C190.326 26.2251 192.438 14.068 192.465 14.1211C192.465 14.1211 192.689 12.9001 193.428 14.8643L194.062 16.5631C194.062 16.5631 207.978 44.235 211.357 52.5166C214.737 60.785 233.709 90.8988 233.709 90.8988C233.709 90.8988 233.854 90.9785 234 90.9785L233.986 90.9652Z" fill="#AE0082"/>
<path d="M249.604 81.4626C246.673 79.6046 248.627 82.3518 248.627 82.3518C248.627 82.3518 250.172 83.4136 249.789 85.3778C249.789 85.3778 248.931 85.9485 248.733 88.4038C248.733 88.4038 248.931 94.5619 242.99 99.9371C237.062 105.325 232.402 109.227 226.461 110.395C220.533 111.563 215.872 112.691 213.139 111.072C212.664 110.807 212.294 111.046 213.324 111.855C213.324 111.855 216.202 113.103 221.232 113.103C222.685 113.103 224.282 112.983 226.065 112.744C226.065 112.744 244.825 112.068 251.426 89.8637C251.426 89.8637 252.496 83.3339 249.591 81.4759L249.604 81.4626Z" fill="#AE0082"/>
<path d="M208.902 110.289C208.902 110.289 198.485 112.466 186.378 127.768C186.378 127.768 185.467 129.201 184.794 127.609C184.794 127.609 175.632 117.124 175.46 97.8799C175.46 97.8799 174.971 96.1944 177.48 91.5492C177.48 91.5492 178.747 89.6115 179.513 86.2405C179.513 86.2405 179.421 84.4753 180.939 85.5503C180.939 85.5503 192.372 94.6017 206.895 99.0743C206.895 99.0743 208.836 99.499 207.581 98.0524C207.581 98.0524 203.634 95.4379 192.795 90.6334C192.795 90.6334 186.062 88.0056 178.417 80.9052C178.417 80.9052 176.741 79.724 176.807 81.9935C176.807 81.9935 177.665 85.9617 175.473 90.2751C175.473 90.2751 169.941 97.2959 174.562 111.563C174.562 111.563 175.816 117.137 184.226 131.338C184.226 131.338 184.675 132.081 185.362 132.081C185.745 132.081 186.18 131.843 186.669 131.152C186.669 131.152 200.267 114.589 209.337 111.152C209.337 111.152 210.116 110.302 208.928 110.302L208.902 110.289Z" fill="#AE0082"/>
<path d="M57.5361 76.1143C47.7927 76.1143 40.0957 84.2897 40.0957 93.9649C40.0957 103.64 47.7927 111.829 57.5361 111.829C67.2795 111.829 75.0161 103.64 75.0161 93.9649C75.0161 84.2897 67.3059 76.1143 57.5361 76.1143V76.1143ZM57.5361 103.043C52.5456 103.043 48.7037 98.9021 48.7037 93.9649C48.7037 89.0278 52.5324 84.887 57.5361 84.887C62.5398 84.887 66.3817 89.0278 66.3817 93.9649C66.3817 98.9021 62.553 103.043 57.5361 103.043Z" fill="#AE0082"/>
<path d="M95.8231 93.8719V93.7658C99.6914 93.3676 101.645 90.9521 101.645 86.6786C101.645 80.1621 96.9453 76.4194 90.1724 76.4194C82.8055 76.4194 77.9602 80.9982 77.9602 89.2002V111.51H79.8481C83.7033 111.47 86.8322 108.352 86.885 104.45V89.1339C86.885 85.6832 88.2317 84.3826 90.3045 84.3826C91.6643 84.3826 93.5787 85.1789 93.5787 87.1166V111.51H95.1761C99.0312 111.457 102.147 108.338 102.187 104.436V104.158V99.5921C102.187 95.2522 98.8992 94.5621 95.8231 93.8719V93.8719Z" fill="#AE0082"/>
<path d="M36.069 76.4194H35.9106C32.029 76.446 28.8737 79.618 28.8473 83.5199V99.3001C28.8473 102.074 27.9099 103.242 25.9031 103.242C23.8964 103.242 22.9722 102.074 22.9722 99.3001V77.6803H14.4302V99.3001C14.4302 102.074 13.4929 103.242 11.4861 103.242C9.47933 103.242 8.54196 102.074 8.54196 99.3001V83.5199C8.51555 79.6047 5.37338 76.4327 1.46547 76.4194H0V100.72C0 106.639 3.63066 111.51 11.1824 111.51C14.0738 111.51 17.0707 110.541 18.6946 108.179C20.3053 110.541 23.2891 111.51 26.1936 111.51C33.7586 111.51 37.3892 106.639 37.3892 100.72V76.4194H36.069V76.4194Z" fill="#1D2088"/>
<path d="M136.935 76.6983H128.248V111.218H129.753C133.622 111.179 136.751 108.02 136.79 104.131V84.98C142.533 84.98 147.339 87.7405 147.339 94.3499C147.339 97.4688 145.662 100.296 143.101 101.795L142.282 102.247C140.236 103.494 138.876 105.75 138.837 108.312V111.205C148.659 111.205 156.066 104.211 156.066 94.2437C156.066 84.2766 149.306 76.6851 136.935 76.6851V76.6983Z" fill="#AE0082"/>
<path d="M124.472 110.051C124.459 106.414 121.739 103.415 118.227 102.99L117.475 102.897C114.993 102.711 114.28 101.742 114.28 99.287V83.8121C114.267 79.8836 111.098 76.6983 107.203 76.6851H107.071H105.751V100.057C105.751 108.06 109.672 111.218 117.963 111.218H124.485V110.037L124.472 110.051Z" fill="#AE0082"/>
<path d="M90.7402 143.761V116.487H89.3011C85.3932 116.487 82.2378 119.672 82.1982 123.588V123.707V151.02H83.6769C87.5716 150.994 90.7006 147.822 90.7402 143.92V143.761V143.761Z" fill="#AE0082"/>
<path d="M75.399 123.375C74.8973 118.358 73.7751 115.89 68.6658 115.89C65.3387 115.89 63.1736 117.854 62.5398 122.194L60.0446 138.823H59.7937L57.2985 122.194C56.6516 117.854 54.4996 115.89 51.1594 115.89C46.0632 115.89 44.9278 118.358 44.4393 123.375L41.6932 150.994H43.1455C47.0138 150.98 50.1296 147.848 50.2088 143.999L50.2352 143.694L51.3178 123.68H51.4102L55.635 147.158C56.1235 149.813 57.787 151.604 59.8994 151.604C62.0117 151.604 63.6885 149.813 64.1769 147.158L68.4017 123.68V122.897H68.4941L69.6163 143.787L69.6559 144.345C69.9068 148.061 72.9697 150.98 76.7192 151.007H78.1451L75.399 123.388V123.375Z" fill="#1D2088"/>
<path d="M102.847 125.91C102.847 124.861 103.732 124.463 104.814 124.463H108.273C112.168 124.437 115.297 121.278 115.337 117.363V116.474H104.511C99.1637 116.474 94.1072 119.035 94.1072 126.242C94.1072 134.523 106.425 137.496 106.425 141.146C106.425 142.42 105.21 143.017 103.243 143.017H101.421C97.5398 143.057 94.4108 146.203 94.3712 150.118V150.994H103.534C114.531 150.994 115.667 145.088 115.667 140.642C115.667 132.546 102.86 128.79 102.86 125.897L102.847 125.91Z" fill="#AE0082"/>
<path d="M126.189 125.91C126.189 124.861 127.073 124.463 128.156 124.463H131.615C135.496 124.437 138.638 121.278 138.678 117.363V116.474H127.865C122.505 116.474 117.462 119.035 117.462 126.242C117.462 134.523 129.78 137.496 129.78 141.146C129.78 142.42 128.552 143.017 126.585 143.017H124.75C120.868 143.057 117.739 146.203 117.699 150.118V150.994H126.862C137.86 150.994 138.982 145.088 138.982 140.642C138.982 132.546 126.175 128.79 126.175 125.897L126.189 125.91Z" fill="#AE0082"/>
<path d="M270.742 154.883V163.177H277.039V189.403H278.505C282.386 189.376 285.542 186.217 285.568 182.302V163.191H291.852V154.896H270.742V154.883Z" fill="#AE0082"/>
<path d="M180.015 154.591H179.764C176.384 154.617 173.546 157.019 172.846 160.231L172.74 160.682L168.793 178.652H168.687L165.149 160.815L165.083 160.457C164.475 157.125 161.597 154.617 158.125 154.591H154.943L161.043 181.028C162.508 187.346 164.277 189.721 168.595 189.721C173.202 189.721 174.773 187.332 176.397 180.935L183.025 154.591H180.028H180.015Z" fill="#AE0082"/>
<path d="M316 154.883H315.815C311.92 154.936 308.765 158.094 308.752 162.01V166.336C308.752 168.221 308.012 169.694 306.111 169.694C304.21 169.694 303.471 168.221 303.471 166.336V161.97C303.431 158.081 300.276 154.936 296.394 154.896H294.929V167.133C294.929 170.968 296.685 175.56 302.045 177.086V189.416H303.524C307.418 189.389 310.547 186.231 310.587 182.316V177.086C315.195 175.52 317.294 171.671 317.294 167.133V154.896H316V154.883Z" fill="#AE0082"/>
<path d="M138.784 154.883H138.573C134.704 154.949 131.589 158.081 131.549 161.956V173.145H131.443L123.839 157.935C122.571 155.427 120.855 154.299 117.951 154.299C115.046 154.299 112.894 156.263 112.894 159.023V189.389H114.36C118.254 189.389 121.41 186.217 121.449 182.302V182.143V169.176H121.542L129.503 184.572C131.76 188.951 133.384 190 135.576 190C137.767 190 140.091 188.129 140.091 184.97V154.883H138.797H138.784Z" fill="#AE0082"/>
<path d="M107.982 154.591H107.837C103.943 154.63 100.8 157.802 100.787 161.718V177.339C100.787 179.847 99.6253 181.426 96.8264 181.426C94.0275 181.426 92.8393 179.86 92.8393 177.339V161.718C92.8393 157.802 89.6707 154.617 85.776 154.591H84.3105V176.635C84.3105 184.532 88.9182 189.721 96.8264 189.721C104.735 189.721 109.329 184.532 109.329 176.635V154.591H107.996H107.982Z" fill="#1D2088"/>
<path d="M224.837 172.043V171.95C228.705 171.552 230.672 169.15 230.672 164.85C230.672 158.333 225.946 154.591 219.186 154.591C211.833 154.591 206.961 159.169 206.961 167.358V189.721H208.862C212.717 189.668 215.846 186.523 215.912 182.647V182.448V167.318C215.912 163.868 217.259 162.58 219.318 162.58C220.691 162.58 222.619 163.363 222.619 165.301V189.721H224.216C228.085 189.642 231.201 186.509 231.24 182.607V177.777C231.24 173.45 227.953 172.746 224.877 172.043H224.837Z" fill="#AE0082"/>
<path d="M197.601 163.284L197.693 163.257C200.994 162.647 203.502 159.753 203.542 156.276V154.883H198.683C189.455 154.883 182.985 162.58 182.985 172.149C182.985 181.718 189.441 189.389 198.683 189.389H203.542V188.062C203.502 184.704 201.165 181.917 198.049 181.174L197.403 181.055C194.709 180.497 193.561 179.144 192.108 175.892H202.274V168.393H192.108C193.561 165.288 194.643 163.854 197.601 163.27V163.284Z" fill="#AE0082"/>
<path d="M152.25 182.169V154.896H150.798C146.903 154.896 143.735 158.081 143.708 161.996V189.403H145.2C149.082 189.376 152.224 186.231 152.25 182.315V182.169V182.169Z" fill="#AE0082"/>
<path d="M267.705 182.169V154.896H266.266C262.358 154.896 259.19 158.081 259.163 161.996V189.403H260.642C264.524 189.376 267.666 186.231 267.705 182.315V182.169V182.169Z" fill="#AE0082"/>
<path d="M242.845 164.306C242.845 163.284 243.73 162.886 244.812 162.886H248.271C252.166 162.846 255.308 159.687 255.322 155.772V154.883H244.496C239.162 154.883 234.092 157.444 234.092 164.637C234.092 172.919 246.41 175.892 246.41 179.555C246.41 180.829 245.182 181.413 243.228 181.413H241.393C237.498 181.453 234.369 184.612 234.343 188.54V189.403H243.505C254.516 189.403 255.638 183.483 255.638 179.064C255.638 170.955 242.832 167.212 242.832 164.306H242.845Z" fill="#AE0082"/>
</g>
<defs>
<clipPath id="clip0_1977_75699">
<rect width="320" height="190" fill="white"/>
</clipPath>
</defs>
</svg>
