<svg width="38" height="36" viewBox="0 0 38 36" fill="none" xmlns="http://www.w3.org/2000/svg">
<g clip-path="url(#clip0_1940_75102)">
<path d="M9.66936 29.4713H12.3486V29.627C11.8339 29.6562 11.579 29.8605 11.579 30.2399C11.579 30.4297 11.6704 30.8189 11.8532 31.4124L12.6901 34.0443L13.8638 30.8626C13.9552 30.6194 14.0033 30.4199 14.0033 30.2691C14.0033 29.8654 13.7628 29.6513 13.2866 29.627V29.4713H15.9273V29.627C15.7013 29.661 15.5425 29.7097 15.4511 29.7729C15.3068 29.8751 15.2299 30.0308 15.2299 30.2399C15.2299 30.4053 15.2732 30.6389 15.3597 30.9405L16.264 34.0443L17.3319 31.247C17.4666 30.8821 17.5387 30.6097 17.5387 30.4199C17.5387 30.167 17.4521 29.9724 17.279 29.8362C17.1924 29.7632 17.0337 29.6902 16.8076 29.6221V29.4664H18.8327V29.6221C18.6354 29.6221 18.4575 29.6902 18.3035 29.8216C18.2025 29.8994 18.1063 30.021 18.0197 30.1864C17.9283 30.347 17.8225 30.5951 17.6975 30.9162L17.5532 31.2762L15.9129 35.4745H15.6724L14.1668 30.7508L12.3486 35.4745H12.1129L10.7324 31.1983L10.5689 30.6826C10.4197 30.2156 10.261 29.9237 10.0975 29.8021C10.0061 29.7291 9.86177 29.6708 9.66455 29.627V29.4713H9.66936Z" fill="white"/>
<path d="M21.0695 29.3693C21.1513 29.7002 21.2042 30.0261 21.2283 30.3521C21.5169 30.0358 21.844 29.7926 22.2047 29.6223C22.5655 29.4521 22.9407 29.3693 23.3303 29.3693C23.7632 29.3693 24.124 29.4812 24.4126 29.7099C24.5857 29.8461 24.7878 30.0845 25.0138 30.425C25.365 30.0602 25.7161 29.7975 26.0673 29.6272C26.4232 29.4569 26.8032 29.3742 27.2121 29.3742C27.7652 29.3742 28.2126 29.5299 28.5589 29.8364C28.9052 30.1429 29.0784 30.5466 29.0784 31.0477V33.9764C29.0832 34.2975 29.1025 34.531 29.1409 34.6769C29.1794 34.8229 29.2468 34.9494 29.3478 35.0466C29.4825 35.1731 29.7181 35.2704 30.0645 35.3385V35.4845H27.0197V35.3385C27.2938 35.2996 27.4911 35.2461 27.6065 35.178C27.7268 35.1099 27.823 34.9931 27.8999 34.8277C27.948 34.7207 27.9865 34.5553 28.0057 34.3364C28.025 34.1175 28.0394 33.8012 28.0394 33.3926V32.045C28.0394 31.5245 28.025 31.1402 27.9913 30.9018C27.9576 30.6634 27.8951 30.4591 27.8037 30.2888C27.5873 29.8899 27.2169 29.6904 26.6878 29.6904C26.1202 29.6904 25.7065 29.9093 25.4516 30.3423C25.2255 30.7121 25.1149 31.291 25.1149 32.0791V33.4412L25.1245 33.9764C25.1245 34.2975 25.1437 34.531 25.1774 34.6769C25.2159 34.8229 25.2832 34.9494 25.3842 35.0466C25.5093 35.1731 25.7498 35.2704 26.1009 35.3385V35.4845H23.0561V35.3385C23.3303 35.2996 23.5275 35.2461 23.643 35.178C23.7584 35.1099 23.8594 34.9931 23.9364 34.8277C23.9845 34.7207 24.023 34.5553 24.0422 34.3364C24.0614 34.1175 24.0759 33.8012 24.0759 33.3926V32.0839C24.0759 31.5342 24.0566 31.1304 24.023 30.8726C23.9893 30.6148 23.9219 30.4056 23.8257 30.2499C23.7247 30.0796 23.5852 29.9483 23.3976 29.851C23.2149 29.7537 23.008 29.705 22.7771 29.705C22.5174 29.705 22.2721 29.7683 22.0412 29.8948C21.8103 30.0212 21.6323 30.1915 21.4976 30.4104C21.3726 30.605 21.286 30.8337 21.2331 31.1061C21.1802 31.3785 21.1513 31.7239 21.1513 32.1569V33.451L21.1609 33.9715C21.1609 34.2926 21.1802 34.5261 21.2138 34.6721C21.2523 34.818 21.3197 34.9445 21.4255 35.0418C21.5554 35.1683 21.7911 35.2656 22.1374 35.3337V35.4796H19.0878V35.3337C19.3668 35.2948 19.5592 35.2412 19.6794 35.1731C19.7997 35.105 19.8959 34.9883 19.968 34.8229C20.0161 34.7158 20.0546 34.5504 20.0738 34.3315C20.0931 34.1126 20.1075 33.7964 20.1075 33.3829V31.6412C20.1075 31.1548 20.0931 30.8191 20.0738 30.6196C20.0498 30.425 20.0017 30.2645 19.9199 30.1429C19.843 30.0115 19.7468 29.9142 19.6361 29.8558C19.5255 29.7975 19.3668 29.7585 19.1599 29.7439V29.598L21.0551 29.3596L21.0695 29.3693Z" fill="white"/>
<path d="M35.8084 35.6108C35.7507 35.3237 35.717 35.0318 35.717 34.7302C35.1446 35.3189 34.4616 35.6108 33.6775 35.6108C33.1051 35.6108 32.6434 35.4697 32.2922 35.1778C31.9507 34.8956 31.7823 34.4967 31.7823 33.9762V30.9843C31.7775 30.6632 31.7583 30.4297 31.7198 30.2837C31.6813 30.1378 31.614 30.0113 31.513 29.9091C31.3783 29.7826 31.1426 29.6902 30.7963 29.627V29.4713H32.8213V33.0567C32.8213 33.5626 32.8406 33.9324 32.8742 34.1756C32.9079 34.4189 32.9704 34.6183 33.0618 34.774C33.1628 34.9345 33.3072 35.061 33.4947 35.1535C33.6823 35.2459 33.894 35.2897 34.1297 35.2897C34.3846 35.2897 34.6251 35.2362 34.8512 35.134C35.0773 35.0318 35.2504 34.8908 35.3803 34.7108C35.515 34.5259 35.6016 34.3167 35.6449 34.0735C35.6882 33.8351 35.7122 33.4362 35.7122 32.8864V30.9794C35.7074 30.6583 35.6882 30.4248 35.6545 30.2789C35.6208 30.1329 35.5487 30.0064 35.4428 29.9043C35.313 29.7778 35.0725 29.6853 34.7261 29.6221V29.4664H36.7512V33.2999C36.7512 33.7864 36.7656 34.127 36.7897 34.3216C36.8137 34.5162 36.8666 34.6767 36.9388 34.7983C37.0206 34.9297 37.1168 35.027 37.2274 35.0854C37.338 35.1437 37.4968 35.1826 37.7036 35.1924V35.3432L35.8084 35.6059V35.6108Z" fill="white"/>
<path d="M20.7352 18.9491C20.5573 18.7935 20.4034 18.8081 20.4034 18.8081C20.615 18.9978 20.6006 18.5843 20.6006 18.5843C20.6727 17.66 19.7636 16.6383 19.7636 16.6383C18.5466 15.7043 17.3345 16.2394 17.3345 16.2394C16.993 16.3805 16.8054 16.5702 16.8054 16.5702C18.9555 6.32482 20.4851 3.2113 20.4851 3.2113C13.4671 5.60968 12.5292 12.2308 12.5292 12.2308C13.7173 9.83725 14.6889 9.20482 14.6889 9.20482C14.8044 8.99076 14.9294 8.7913 15.0545 8.60157C16.5264 6.41238 18.7054 5.61941 18.7054 5.61941C17.0555 10.8491 16.4879 16.4729 16.4879 16.4729L16.4735 16.687C16.459 16.8232 16.3532 16.8524 16.3532 16.8524C15.6558 17.3437 15.3094 17.5529 15.3094 17.5529C15.1699 17.6891 15.319 17.7086 15.319 17.7086L15.9299 17.7183C16.9641 16.7551 18.258 16.5556 18.258 16.5556C19.6963 16.5362 20.1773 18.2681 20.1773 18.2681C20.2446 18.4091 20.1917 19.241 20.1917 19.241C20.6198 19.2508 21.1153 19.6205 21.1153 19.6205C21.1682 19.4064 20.7304 18.9491 20.7304 18.9491H20.7352Z" fill="white"/>
<path d="M15.0323 22.4419C15.0755 22.4419 15.1188 22.4127 15.09 22.2668C15.09 22.2668 13.1226 17.6938 12.1847 14.7749C12.1847 14.7749 12.1077 14.5122 11.0014 12.7462C11.0014 12.7462 10.6502 12.2257 9.63529 9.69594C9.63529 9.69594 7.13884 4.25702 4.7482 0.564591C4.7482 0.564591 4.54618 0.331078 4.44517 0.647294C4.44517 0.647294 3.67074 3.3181 2.79529 5.78946C2.79529 5.78946 0.775039 11.5689 3.37732 16.6722C3.37732 16.6722 4.5558 18.7397 7.19656 21.1138C7.27352 21.1868 7.48998 21.143 7.32643 20.9922C7.32643 20.9922 2.39605 17.6062 4.04112 9.26784C4.61833 6.33919 5.16669 3.34729 5.1715 3.36189C5.1715 3.36189 5.22922 3.06027 5.40238 3.55162L5.5515 3.97C5.5515 3.97 8.84643 10.8343 9.6401 12.8873C10.4338 14.9354 14.9505 22.4176 14.9505 22.4176C14.9505 22.4176 14.9842 22.437 15.0178 22.437L15.0323 22.4419Z" fill="white"/>
<path d="M18.846 20.1458C18.1389 19.6787 18.6055 20.3647 18.6055 20.3647C18.6055 20.3647 18.9758 20.6323 18.8796 21.1139C18.8796 21.1139 18.668 21.2501 18.6151 21.8582C18.6151 21.8582 18.6439 23.376 17.1865 24.6798C15.7338 25.9885 14.589 26.942 13.146 27.2095C11.7029 27.482 10.5677 27.7447 9.91356 27.336C9.79811 27.2679 9.71153 27.3263 9.95685 27.5306C9.95685 27.5306 10.6495 27.8468 11.8713 27.8614C12.2224 27.8614 12.612 27.842 13.045 27.7885C13.045 27.7885 17.6001 27.6766 19.2693 22.2231C19.2693 22.2231 19.5482 20.6177 18.8508 20.1506L18.846 20.1458Z" fill="white"/>
<path d="M8.88447 27.1273C8.88447 27.1273 6.34954 27.6332 3.36726 31.3694C3.36726 31.3694 3.14118 31.7197 2.98245 31.3256C2.98245 31.3256 0.789029 28.7132 0.803459 23.9651C0.803459 23.9651 0.688017 23.5467 1.31333 22.4083C1.31333 22.4083 1.62599 21.9364 1.82321 21.1046C1.82321 21.1046 1.80397 20.6667 2.16954 20.9391C2.16954 20.9391 4.91612 23.2062 8.42751 24.3543C8.42751 24.3543 8.89409 24.4662 8.59587 24.1062C8.59587 24.1062 7.64346 23.4494 5.03156 22.2332C5.03156 22.2332 3.40574 21.5667 1.57308 19.791C1.57308 19.791 1.16903 19.4943 1.17865 20.0537C1.17865 20.0537 1.37586 21.0364 0.83232 22.0921C0.83232 22.0921 -0.533756 23.8046 0.548522 27.3364C0.548522 27.3364 0.837131 28.7181 2.83333 32.2402C2.83333 32.2402 2.93916 32.4251 3.10751 32.43C3.1989 32.43 3.30473 32.3716 3.42498 32.2062C3.42498 32.2062 6.77283 28.1635 8.98548 27.3462C8.98548 27.3462 9.17789 27.137 8.88928 27.137L8.88447 27.1273Z" fill="white"/>
<path d="M19.4427 18.4877C19.3561 18.6385 19.1204 18.658 18.9232 18.5364C18.726 18.4147 18.6346 18.1958 18.7212 18.045C18.8078 17.8942 19.0435 17.8699 19.2407 17.9964C19.4379 18.118 19.5293 18.3418 19.4427 18.4926V18.4877Z" fill="white"/>
</g>
<defs>
<clipPath id="clip0_1940_75102">
<rect width="38" height="36" fill="white" transform="translate(0.00012207 -0.000366211)"/>
</clipPath>
</defs>
</svg>
