<svg width="144" height="30" viewBox="0 0 144 30" fill="none" xmlns="http://www.w3.org/2000/svg">
<g clip-path="url(#clip0_267_8415)">
<path d="M59.7166 7.77734L57.6543 17.2922L53.4632 7.77734H48.4063L45.3008 22.1359H49.607L51.7136 12.3831L56.1268 22.1359H60.9354L64.043 7.77734H59.7166Z" fill="#7C4DFF"/>
<path d="M81.7515 7.77734H77.0094L72.2089 13.9554L70.2071 7.77734H65.2148L69.2446 16.9294L68.1226 22.1359H72.6427L73.803 16.745L81.7515 7.77734Z" fill="#7C4DFF"/>
<path d="M80.1947 20.564C81.2097 21.7972 83.1429 22.4237 85.9417 22.4237C90.601 22.4237 93.7953 19.6876 94.6792 16.9138H90.1591C89.6223 18.5773 88.3591 19.5211 86.6399 19.5211C85.6047 19.5211 84.8359 19.2257 84.3556 18.6427C83.7301 17.8834 83.6211 16.6938 84.0126 14.8994L84.0308 14.8122C84.4404 12.9148 85.3363 10.4007 88.3813 10.4007C89.2692 10.4007 89.9432 10.6644 90.3851 11.1819C90.829 11.7034 90.932 12.3596 90.9178 12.893H95.4177C95.5933 11.3722 95.2906 10.1489 94.5137 9.2468C93.5249 8.10081 91.7532 7.49609 89.3883 7.49609C83.8673 7.49609 80.6467 9.97643 79.543 15.0779C78.9981 17.578 79.212 19.3724 80.1947 20.566V20.564Z" fill="#7C4DFF"/>
<path d="M108.785 7.77734L107.564 13.43H101.355L102.576 7.77734H98.0763L94.9688 22.1359H99.4686L100.708 16.3703H106.917L105.678 22.1359H110.159L113.267 7.77734H108.785Z" fill="#7C4DFF"/>
<path d="M143.161 10.6917L143.789 7.78711H129.452L128.822 10.6917H133.78L131.302 22.1279H135.705L138.183 10.6917H143.161Z" fill="#7C4DFF"/>
<path d="M41.2083 7.77734H35.9396L26.5645 22.1359H31.022L37.786 11.6198L39.14 19.2333H35.8306L33.9641 22.1359H39.6565H40.0258H44.2795L41.2083 7.77734Z" fill="#7C4DFF"/>
<path d="M125.933 7.77734H120.664L111.289 22.1359H115.747L122.509 11.6198L123.865 19.2333H120.555L118.687 22.1359H124.381H124.75H129.004L125.933 7.77734Z" fill="#7C4DFF"/>
<path d="M18.587 8.35885C13.6412 5.25794 2.57303 6.6022 0.944586 15.5877C-0.875554 25.6558 13.8813 29.9979 13.8813 29.9979C13.8813 29.9979 5.92475 24.3631 15.3301 23.3182C24.3723 22.309 26.5759 13.3671 18.587 8.35687V8.35885ZM5.74112 17.4792C5.34763 17.4792 4.96221 17.3642 4.63531 17.1501C4.30841 16.9359 4.05416 16.6306 3.90282 16.2737C3.75148 15.9168 3.71313 15.5243 3.78981 15.1456C3.86649 14.7669 4.05618 14.4179 4.33465 14.1443C4.61312 13.8707 4.96826 13.6843 5.35368 13.609C5.7391 13.5337 6.13864 13.5713 6.50388 13.72C6.86912 13.8687 7.17786 14.1186 7.39579 14.4397C7.61372 14.7609 7.73076 15.1396 7.73076 15.5263C7.73076 15.784 7.68031 16.0378 7.57942 16.2737C7.47852 16.5117 7.33324 16.7258 7.14759 16.9082C6.96194 17.0906 6.74401 17.2333 6.50186 17.3325C6.25972 17.4316 6.00143 17.4812 5.74112 17.4812V17.4792ZM12.1499 17.4792C11.6233 17.4792 11.1168 17.273 10.7435 16.9062C10.3702 16.5394 10.1603 16.0418 10.1603 15.5243H14.1376C14.1376 15.782 14.0871 16.0358 13.9862 16.2737C13.8853 16.5117 13.74 16.7278 13.5544 16.9082C13.3688 17.0906 13.1488 17.2333 12.9087 17.3325C12.6665 17.4316 12.4082 17.4812 12.1459 17.4812H12.1499V17.4792ZM18.5588 17.4792C18.1653 17.4792 17.7799 17.3642 17.453 17.1501C17.1261 16.9359 16.8718 16.6306 16.7205 16.2737C16.5691 15.9168 16.5308 15.5243 16.6075 15.1456C16.6842 14.7669 16.8738 14.4179 17.1523 14.1443C17.4308 13.8707 17.7859 13.6843 18.1713 13.609C18.5568 13.5337 18.9563 13.5713 19.3195 13.72C19.6827 13.8687 19.9935 14.1186 20.2114 14.4397C20.4294 14.7609 20.5464 15.1396 20.5464 15.5263C20.5464 15.784 20.496 16.0378 20.3951 16.2757C20.2942 16.5136 20.1469 16.7297 19.9632 16.9102C19.7776 17.0926 19.5576 17.2353 19.3155 17.3345C19.0733 17.4316 18.813 17.4832 18.5527 17.4812H18.5588V17.4792Z" fill="#7C4DFF"/>
<path d="M17.6762 2.8052C17.6762 2.8052 15.5393 2.24608 14.8431 4.19308C14.1449 6.14007 12.2299 6.74083 10.5793 5.52941C8.92864 4.316 9.15868 1.24681 13.1602 0.190038C17.1616 -0.866733 19.454 2.77149 20.3358 4.546C21.2176 6.3205 23.1588 6.73885 23.6835 5.02184C23.6835 5.02184 24.196 6.71704 22.0873 7.20874C19.9786 7.70243 17.0164 3.89568 15.7451 3.97102C15.7451 3.97102 15.9872 3.09864 17.6762 2.8052V2.8052Z" fill="#7C4DFF"/>
</g>
<defs>
<clipPath id="clip0_267_8415">
<rect width="143" height="30" fill="white" transform="translate(0.789062)"/>
</clipPath>
</defs>
</svg>
