<svg width="18" height="19" viewBox="0 0 18 19" fill="none" xmlns="http://www.w3.org/2000/svg">
<path d="M9.53223 8.97193C10.0623 9.63404 10.8662 10.067 11.7783 10.067C13.3712 10.067 14.6672 8.77088 14.6672 7.17688C14.6672 5.58398 13.3712 4.28809 11.7783 4.28809C11.5292 4.28809 11.2912 4.33008 11.0612 4.38904C11.1512 4.73206 11.2112 5.08606 11.2162 5.45606C11.2162 5.47498 11.2213 5.49207 11.2213 5.51002C11.2213 6.9181 10.5532 8.15797 9.53223 8.97193Z"/>
<path d="M14.5519 16.3701C14.5519 16.4001 14.545 16.4282 14.5429 16.4573C14.546 16.5413 14.556 16.623 14.556 16.707C14.556 16.7871 14.525 16.8572 14.511 16.9331H17.5859C17.814 16.9331 18 16.7473 18 16.5193C18 13.5623 15.594 11.1562 12.636 11.1562H12.364C13.713 12.4851 14.5519 14.3313 14.5519 16.3701H14.5519Z"/>
<path d="M6.77695 8.95447C8.67594 8.95447 10.2209 7.41028 10.2209 5.5105C10.2209 3.61243 8.67594 2.06738 6.77695 2.06738C4.87796 2.06738 3.33301 3.61242 3.33301 5.5105C3.33301 7.41028 4.87796 8.95447 6.77695 8.95447Z"/>
<path d="M13.552 16.3699C13.552 12.882 10.714 10.0439 7.22598 10.0439H6.32599C2.83798 10.0439 0 12.882 0 16.3699C0 16.681 0.25198 16.9329 0.56299 16.9329H5.96997H12.989C13.3 16.9329 13.552 16.681 13.552 16.3699Z"/>
</svg>
