<svg width="459" height="70" viewBox="0 0 459 70" fill="none" xmlns="http://www.w3.org/2000/svg">
<path d="M366.697 1.14502V17.409H379.084V68.8291H381.966C389.601 68.777 395.807 62.5837 395.859 54.9071V17.435H408.22V1.17105H366.697V1.14502Z" fill="#AE0082"/>
<path d="M188.244 0.572388H187.75C181.102 0.624432 175.519 5.33447 174.143 11.6319L173.935 12.5166L166.171 47.7508H165.963L159.003 12.7768L158.874 12.0742C157.679 5.54264 152.018 0.624432 145.188 0.572388H138.93L150.927 52.4088C153.81 64.7954 157.289 69.4534 165.781 69.4534C174.844 69.4534 177.934 64.7694 181.128 52.2267L194.164 0.572388H188.27H188.244Z" fill="#AE0082"/>
<path d="M455.716 1.14502H455.352C447.692 1.24911 441.485 7.44242 441.459 15.119V23.6023C441.459 27.2974 440.005 30.1859 436.266 30.1859C432.526 30.1859 431.072 27.2974 431.072 23.6023V15.0409C430.994 7.41641 424.788 1.24911 417.153 1.17105H414.271V25.1636C414.271 32.6841 417.725 41.6878 428.268 44.6803V68.8551H431.176C438.837 68.803 444.991 62.6097 445.069 54.9331V44.6803C454.132 41.6097 458.261 34.0632 458.261 25.1636V1.17105H455.716V1.14502Z" fill="#AE0082"/>
<path d="M107.145 1.14497H106.729C99.1206 1.27508 92.9922 7.41635 92.9142 15.0149V36.9517H92.7065L77.7488 7.13011C75.2559 2.21189 71.88 0 66.167 0C60.454 0 56.2212 3.85129 56.2212 9.26393V68.803H59.1037C66.7643 68.803 72.9707 62.5836 73.0486 54.9071V54.5948V29.171H73.2303L88.8892 59.3569C93.3297 67.9442 96.5238 70 100.835 70C105.145 70 109.716 66.3308 109.716 60.1375V1.14497H107.171H107.145Z" fill="#AE0082"/>
<path d="M46.561 0.572388H46.2753C38.6147 0.650455 32.4343 6.86977 32.4083 14.5464V45.1746C32.4083 50.0928 30.1231 53.1895 24.6178 53.1895C19.1126 53.1895 16.7755 50.1188 16.7755 45.1746V14.5464C16.7755 6.86977 10.5431 0.624432 2.88247 0.572388H0V43.7954C0 59.2787 9.06289 69.4534 24.6178 69.4534C40.1728 69.4534 49.2097 59.2787 49.2097 43.7954V0.572388H46.587H46.561Z" fill="#1D2088"/>
<path d="M276.405 34.7917V34.6095C284.014 33.8289 287.883 29.1188 287.883 20.6876C287.883 7.91067 278.587 0.572388 265.291 0.572388C250.827 0.572388 241.245 9.55007 241.245 25.6058V69.4534H244.984C252.567 69.3493 258.721 63.182 258.851 55.5835V55.1932V25.5278C258.851 18.762 261.5 16.2378 265.551 16.2378C268.251 16.2378 272.043 17.7731 272.043 21.5724V69.4534H275.185C282.794 69.2973 288.922 63.156 289 55.5055V46.0333C289 37.5501 282.534 36.1709 276.483 34.7917H276.405Z" fill="#AE0082"/>
<path d="M222.833 17.6171L223.015 17.5651C229.507 16.3681 234.441 10.6952 234.519 3.87737V1.14502H224.962C206.811 1.14502 194.086 16.238 194.086 35.0001C194.086 53.7621 206.785 68.803 224.962 68.803H234.519V66.2008C234.441 59.6171 229.844 54.1524 223.716 52.6952L222.443 52.461C217.146 51.3681 214.887 48.7138 212.03 42.3383H232.026V27.6357H212.03C214.887 21.5465 217.016 18.7361 222.833 17.5911V17.6171Z" fill="#AE0082"/>
<path d="M133.632 54.647V1.17114H130.776C123.115 1.17114 116.883 7.41649 116.831 15.0931V68.8292H119.765C127.4 68.7771 133.58 62.6098 133.632 54.9332V54.647V54.647Z" fill="#AE0082"/>
<path d="M360.724 54.647V1.17114H357.894C350.207 1.17114 343.975 7.41649 343.923 15.0931V68.8292H346.831C354.466 68.7771 360.646 62.6098 360.724 54.9332V54.647V54.647Z" fill="#AE0082"/>
<path d="M311.826 19.6209C311.826 17.6172 313.566 16.8365 315.695 16.8365H322.499C330.16 16.7584 336.34 10.5651 336.366 2.88853V1.14502H315.072C304.581 1.14502 294.609 6.16734 294.609 20.2714C294.609 36.5093 318.838 42.3383 318.838 49.5205C318.838 52.0186 316.423 53.1636 312.579 53.1636H308.97C301.309 53.2417 295.155 59.435 295.103 67.1376V68.8291H313.125C334.782 68.8291 336.989 57.2231 336.989 48.5577C336.989 32.658 311.8 25.3198 311.8 19.6209H311.826Z" fill="#AE0082"/>
</svg>
