<svg width="191" height="70" viewBox="0 0 191 70" fill="none" xmlns="http://www.w3.org/2000/svg">
<path d="M96.1039 54.6265V1.17053H93.2842C85.6269 1.17053 79.4442 7.41358 79.3666 15.0873V15.3214V68.8554H82.2639C89.8953 68.8034 96.0263 62.5864 96.1039 54.9387V54.6265V54.6265Z" fill="#AE0082"/>
<path d="M66.044 14.6711C65.061 4.83835 62.8621 0 52.8507 0C46.3317 0 42.0892 3.84987 40.8474 12.356L35.9582 44.9498H35.4666L30.5774 12.356C29.3098 3.84987 25.0931 0 18.5482 0C8.5627 0 6.33795 4.83835 5.38079 14.6711L0 68.8034H2.84561C10.4253 68.7774 16.5304 62.6384 16.6856 55.0948L16.7374 54.4965L18.8586 15.2694H19.0397L27.3179 61.2858C28.275 66.4883 31.5345 70 35.6736 70C39.8127 70 43.0981 66.4883 44.0552 61.2858L52.3334 15.2694V13.7347H52.5144L54.7133 54.6785L54.7909 55.7711C55.2824 63.0546 61.2841 68.7774 68.6309 68.8294H71.4248L66.044 14.6971V14.6711Z" fill="#1D2088"/>
<path d="M119.826 19.6395C119.826 17.5845 121.559 16.8041 123.681 16.8041H130.458C138.09 16.7521 144.221 10.5611 144.298 2.88737V1.14453H123.086C112.609 1.14453 102.701 6.16497 102.701 20.2898C102.701 36.5217 126.837 42.3485 126.837 49.502C126.837 51.9992 124.457 53.1698 120.602 53.1698H117.032C109.427 53.2478 103.296 59.4128 103.218 67.0865V68.8034H121.171C142.72 68.8034 144.945 57.2278 144.945 48.5135C144.945 32.6458 119.852 25.2842 119.852 19.6135L119.826 19.6395Z" fill="#AE0082"/>
<path d="M165.563 19.6395C165.563 17.5845 167.296 16.8041 169.417 16.8041H176.195C183.801 16.7521 189.957 10.5611 190.035 2.88737V1.14453H168.848C158.345 1.14453 148.463 6.16497 148.463 20.2898C148.463 36.5217 172.599 42.3485 172.599 49.502C172.599 51.9992 170.193 53.1698 166.339 53.1698H162.743C155.137 53.2478 149.007 59.4128 148.929 67.0865V68.8034H166.882C188.431 68.8034 190.63 57.2278 190.63 48.5135C190.63 32.6458 165.537 25.2842 165.537 19.6135L165.563 19.6395Z" fill="#AE0082"/>
</svg>
