<svg width="306" height="70" viewBox="0 0 306 70" fill="none" xmlns="http://www.w3.org/2000/svg">
<path d="M112.526 0C93.4701 0 78.4167 16.0238 78.4167 34.987C78.4167 53.9502 93.4701 70 112.526 70C131.581 70 146.712 53.9502 146.712 34.987C146.712 16.0238 131.633 0 112.526 0V0ZM112.526 52.7796C102.765 52.7796 95.2517 44.6637 95.2517 34.987C95.2517 25.3103 102.74 17.1944 112.526 17.1944C122.312 17.1944 129.825 25.3103 129.825 34.987C129.825 44.6637 122.337 52.7796 112.526 52.7796Z" fill="#AE0082"/>
<path d="M187.405 34.8049V34.5968C194.971 33.8164 198.792 29.0821 198.792 20.706C198.792 7.93382 189.6 0.598267 176.354 0.598267C161.946 0.598267 152.47 9.57262 152.47 25.6484V69.3756H156.162C163.702 69.2976 169.821 63.1846 169.925 55.5369V25.5184C169.925 18.7551 172.558 16.2058 176.612 16.2058C179.272 16.2058 183.016 17.7666 183.016 21.5644V69.3756H186.14C193.679 69.2716 199.773 63.1586 199.851 55.5109V54.9647V46.0163C199.851 37.5102 193.421 36.1575 187.405 34.8049V34.8049Z" fill="#AE0082"/>
<path d="M70.5416 0.598267H70.2317C62.6405 0.650292 56.4694 6.86731 56.4178 14.515V45.444C56.4178 50.8807 54.5845 53.1698 50.6598 53.1698C46.7351 53.1698 44.9276 50.8807 44.9276 45.444V3.06946H28.2218V45.444C28.2218 50.8807 26.3885 53.1698 22.4638 53.1698C18.5391 53.1698 16.7059 50.8807 16.7059 45.444V14.515C16.6542 6.84129 10.5089 0.624279 2.86607 0.598267H0V48.2274C0 59.829 7.10064 69.3756 21.87 69.3756C27.5246 69.3756 33.3859 67.4767 36.5618 62.8465C39.7119 67.4767 45.5473 69.3756 51.2279 69.3756C66.023 69.3756 73.1236 59.829 73.1236 48.2274V0.598267H70.5416V0.598267Z" fill="#1D2088"/>
<path d="M267.81 1.14467H250.82V68.8035H253.764C261.329 68.7255 267.449 62.5345 267.526 54.9128V17.3765C278.758 17.3765 288.157 22.7872 288.157 35.7415C288.157 41.8544 284.878 47.3951 279.868 50.3345L278.268 51.219C274.265 53.6642 271.606 58.0863 271.528 63.1068V68.7775C290.739 68.7775 305.224 55.0689 305.224 35.5334C305.224 15.9979 292.004 1.11865 267.81 1.11865V1.14467Z" fill="#AE0082"/>
<path d="M243.436 66.5144C243.41 59.3869 238.091 53.5081 231.223 52.6757L229.751 52.4936C224.897 52.1294 223.502 50.2305 223.502 45.4182V15.0874C223.476 7.3877 217.279 1.14466 209.662 1.11865H209.404H206.822V46.9269C206.822 62.6125 214.491 68.8035 230.706 68.8035H243.461V66.4884L243.436 66.5144Z" fill="#AE0082"/>
</svg>
